<mxfile host="app.diagrams.net" modified="2025-09-03T00:00:00.000Z" agent="AI" version="22.0.0" editor="www.diagrams.net">
  <diagram id="draft-system-comparison-timing" name="Draft System Comparison & Timing">
    <mxGraphModel dx="1280" dy="720" grid="1" gridSize="10" guides="1" tooltips="1" connect="1" arrows="1" fold="1" page="1" pageScale="1" pageWidth="1920" pageHeight="1080" background="#FFFFFF">
      <root>
        <mxCell id="0"/>
        <mxCell id="1" parent="0"/>

        <mxCell id="title" value="Draft System Comparison &amp; Timing" style="rounded=1;whiteSpace=wrap;html=1;fontSize=22;fontStyle=1;fillColor=#EDE9FE;strokeColor=#7C3AED;fontColor=#5B21B6;align=center;verticalAlign=middle;" vertex="1" parent="1">
          <mxGeometry x="40" y="20" width="640" height="60" as="geometry"/>
        </mxCell>

        <!-- Mock vs Real cards -->
        <mxCell id="mock" value="Mock Draft (Practice)\n• Instant start\n• No scheduling\n• AI fills empty slots\n• Reset anytime\n• No roster/txn/budget commits" style="rounded=1;whiteSpace=wrap;html=1;fillColor=#FEF3C7;strokeColor=#F59E0B;fontColor=#92400E;" vertex="1" parent="1">
          <mxGeometry x="40" y="110" width="420" height="180" as="geometry"/>
        </mxCell>
        <mxCell id="real" value="Real Draft (League)\n• Scheduled date/time\n• 60-min preview\n• Commissioner controls\n• One-time event\n• Creates rosters/transactions/budgets" style="rounded=1;whiteSpace=wrap;html=1;fillColor=#DBEAFE;strokeColor=#1E3A8A;fontColor=#1E3A8A;" vertex="1" parent="1">
          <mxGeometry x="500" y="110" width="420" height="180" as="geometry"/>
        </mxCell>

        <!-- Timing phases strip -->
        <mxCell id="p1" value="Closed (Before T-60)" style="rounded=1;whiteSpace=wrap;html=1;fillColor=#FEE2E2;strokeColor=#DC2626;fontColor=#7F1D1D;" vertex="1" parent="1">
          <mxGeometry x="40" y="320" width="280" height="60" as="geometry"/>
        </mxCell>
        <mxCell id="p2" value="Preview (T-60 to T-0)" style="rounded=1;whiteSpace=wrap;html=1;fillColor=#FEF3C7;strokeColor=#F59E0B;fontColor=#92400E;" vertex="1" parent="1">
          <mxGeometry x="340" y="320" width="280" height="60" as="geometry"/>
        </mxCell>
        <mxCell id="p3" value="Live (T-0+)" style="rounded=1;whiteSpace=wrap;html=1;fillColor=#DCFCE7;strokeColor=#16A34A;fontColor=#14532D;" vertex="1" parent="1">
          <mxGeometry x="640" y="320" width="280" height="60" as="geometry"/>
        </mxCell>

        <!-- Sequence summary note -->
        <mxCell id="seq" value="Timing Control Sequence (Summary)\nUI → API: room-state\nAPI → Clock/DB: now, settings\nAPI: compute isOpen/isLive\nUI: countdown via WS until T=0\nWS: enable controls at start\nWS: broadcast pick events" style="rounded=1;whiteSpace=wrap;html=1;fillColor=#F3F4F6;strokeColor=#374151;fontColor=#111827;" vertex="1" parent="1">
          <mxGeometry x="40" y="400" width="880" height="140" as="geometry"/>
        </mxCell>

      </root>
    </mxGraphModel>
  </diagram>
</mxfile>